<svg xmlns="http://www.w3.org/2000/svg" width="256" height="256"><path fill="#1976D2" fill-opacity=".016" fill-rule="evenodd" d="M0 128.004v128.004l128.25-.254 128.25-.254.254-127.75L257.008 0H0zm.485.496c0 70.4.119 99.053.265 63.672s.146-92.98 0-128S.485 58.1.485 128.5"/><path fill="#1976D2" fill-opacity=".291" fill-rule="evenodd" d="M102.888.961c-16.986 3.07-37.884 12.363-50.476 22.445C34.222 37.97 20.78 60.507 16.427 83.74c-2.268 12.101-1.55 33.666 1.486 44.634 7.723 27.904 28.298 52.732 54.587 65.871 16.696 8.345 30.455 11.237 50 10.509 13.821-.515 23.818-2.569 35.332-7.258l6.333-2.579 3.86 3.291c3.13 2.669 3.75 3.765 3.277 5.792-1.493 6.407-1.994 11.674-1.283 13.5.429 1.1 7.912 9.008 16.63 17.572 16.745 16.451 21.245 19.536 30.008 20.574 11.663 1.381 24.332-10.671 24.332-23.146 0-8.15-1.492-10.304-20.154-29.103-13.171-13.267-18.933-18.398-21.569-19.207-1.978-.607-3.942-.89-4.366-.628-.423.261-1.994-1.129-3.49-3.091l-2.72-3.566 3.059-2.703c7.113-6.282 18.242-23.084 22.654-34.202 8.844-22.288 9.816-45.237 2.859-67.5-2.749-8.8-8.825-21.525-13.592-28.469-4.677-6.814-17.441-19.762-24.326-24.677-11.293-8.063-28.28-15.41-41.344-17.883-5.622-1.064-30.08-1.419-35.112-.51m-1.06 7.535C76.843 12.701 52.801 27.59 39.259 47.244 25.715 66.9 21.333 84.309 23.916 108.195c2.658 24.582 12.142 43.487 30.203 60.209 15.635 14.475 32.847 22.611 54.114 25.579 23.546 3.286 51.933-5.501 71.711-22.199 9.459-7.985 25.247-28.005 28.101-35.633 12.36-33.037 6.993-66.76-14.976-94.089-21.295-26.49-56.447-39.422-91.241-33.566M106 15.698c-19.767 3.362-38.866 13.145-51.637 26.45C49.625 47.084 43.276 56 44.5 56c.289 0-.577 1.746-1.924 3.88-3.242 5.136-6.972 14.108-9.196 22.122-1.349 4.862-1.787 9.898-1.739 19.998.057 11.896.391 14.51 2.815 22 5.766 17.814 16.319 34.085 28.11 43.339 19.063 14.962 39.29 21.676 61.06 20.269 5.575-.361 12.778-1.33 16.006-2.153 8.452-2.156 23.173-9.492 31.695-15.795 13.512-9.992 25.799-28.129 31.274-46.16 2.435-8.021 2.739-10.632 2.797-24 .09-20.945-3.186-31.936-14.062-47.178-13.583-19.035-31.906-30.943-55.213-35.884-6.104-1.293-24.249-1.74-30.123-.74m4.571 18.873c-.864.865-1.571 2.183-1.571 2.929 0 1.578 2.686 4.5 4.137 4.5 2.348 0 4.863-2.242 4.863-4.335 0-4.363-4.348-6.174-7.429-3.094M83.5 60.335c-6.163 2.047-10.123 4.371-12.412 7.28C69.093 70.152 69 71.419 69 96.165v25.895l2.75-1.972c4.727-3.39 13.751-5.375 22.165-4.876 8.317.494 12.727 2.248 17.835 7.096l3.25 3.084V71.07l-3.155-3.594c-1.736-1.977-4.926-4.497-7.089-5.601-5.008-2.555-15.841-3.34-21.256-1.54m54.218-.302c-5.763 1.446-9.232 3.554-12.628 7.674L122 71.456v53.622l2.25-2.165c4.426-4.257 12.721-7.266 21.25-7.708 7.704-.399 11.07.296 20.75 4.287 1.64.677 1.75-.889 1.75-24.879v-25.6l-4.25-3.126c-2.338-1.719-5.715-3.754-7.506-4.522-4.287-1.839-13.785-2.522-18.526-1.332M137 68.508c-2.475.819-5.603 2.347-6.951 3.396-2.073 1.613-2.25 2.149-1.149 3.475 1.18 1.423 1.593 1.418 4.443-.056 5.086-2.631 15.188-2.88 21.815-.538 4.09 1.445 5.961 1.696 6.75.907 1.833-1.833 1.286-2.56-3.904-5.19-6.311-3.198-14.899-4.013-21.004-1.994m-57.75 1.956c-4.881 2.272-6.556 4.611-4.301 6.005.522.322 3.658-.326 6.969-1.441 7.395-2.492 12.952-2.525 19.912-.122 4.285 1.48 5.43 1.581 5.839.515.778-2.029-.526-3.452-5.042-5.503-6.205-2.818-16.678-2.573-23.377.546m3.787 10.651c-6.413 1.949-11.015 6.544-8.261 8.246.427.264 3.464-.432 6.75-1.547 6.921-2.349 17.012-2.138 22.038.461 2.857 1.477 3.123 1.456 4.242-.336 1.049-1.68.707-2.233-2.835-4.577-3.245-2.147-5.434-2.728-11.25-2.983-3.972-.175-8.78.157-10.684.736m52.554.366c-5.002 1.782-7.83 4.528-6.639 6.447.762 1.227 1.617 1.192 6.082-.25 6.845-2.211 13.754-2.122 20.544.265 4.718 1.658 5.61 1.73 6.087.487 1.478-3.851-7.306-8.397-16.165-8.364-3.3.012-7.759.649-9.909 1.415M81.5 94.326c-6.64 2.598-8.438 4.646-6.61 7.529.705 1.114 1.341 1.039 3.569-.42 4.013-2.629 16.986-3.174 23.655-.993 4.179 1.367 5.338 1.445 5.984.4 1.046-1.693-1.679-4.729-5.816-6.48-3.894-1.648-16.606-1.67-20.782-.036m53.501-.203c-4.403 1.756-7.059 4.9-5.927 7.015.955 1.784 1.108 1.789 3.669.112 3.737-2.446 20.35-2.443 24.906.005 2.763 1.485 3.3 1.511 4.373.219 1.638-1.975-.219-4.198-5.522-6.611-4.456-2.027-17.174-2.464-21.499-.74M85.5 122.916c-4.923 1.289-9.812 3.749-13 6.543l-3 2.628 4.5-.552c2.475-.303 8.595-.823 13.601-1.156 12.092-.803 16.45.978 21.685 8.864 3.818 5.752 5.21 6.757 9.362 6.757 3.758 0 5.994-1.59 8.498-6.046 1.249-2.223 4.315-5.417 6.813-7.096l4.541-3.054 10.5.631c5.775.348 12.525.875 15 1.173l4.5.541-3-2.548c-7.919-6.727-22.068-8.956-30.222-4.761-5.888 3.029-11.046 7.785-13.357 12.315-2.323 4.553-3.114 4.725-5.436 1.181-3.695-5.639-9.724-11.192-14.258-13.133-5.647-2.417-12.6-3.368-16.727-2.287M60.286 129.5c.008 2.75.202 3.756.432 2.236s.223-3.77-.014-5-.425.014-.418 2.764m121.573 54.861c-1.508 1.103-1.497 1.368.132 3.38 1.755 2.167 1.781 2.169 3.549.215.98-1.083 1.596-2.093 1.371-2.245a76 76 0 0 1-1.914-1.411c-1.126-.85-1.913-.835-3.138.061m12.891 9.031c-1.59 1.207-.995 1.993 6.5 8.577 13.309 11.691 28.462 26.957 30.145 30.369l1.559 3.162.023-3.8c.013-2.089-.697-5.239-1.576-7-2.417-4.836-30.475-32.706-32.888-32.668-1.107.017-2.801.63-3.763 1.36"/><path fill="#1976D2" fill-opacity=".162" fill-rule="evenodd" d="M105.25 1.066c-13.095 1.703-32.97 9.216-45.381 17.155-18.895 12.087-34.266 33.294-40.94 56.484-2.847 9.893-3.437 15.212-3.36 30.295.078 15.549 2.134 24.975 8.414 38.583 13.64 29.555 38.584 50.127 71.517 58.982 9.424 2.534 28.452 3.019 39.412 1.005 8.052-1.48 12.262-2.699 26.735-7.745 2.938-1.024 3.397-.848 6.907 2.662 3.548 3.549 3.694 3.938 2.602 6.957-.636 1.759-1.156 5.196-1.156 7.638 0 4.414.097 4.536 16.75 21.08 19.549 19.42 22.701 21.386 33.661 20.983 10.913-.4 21.651-13.648 20.182-24.898-.951-7.281-3.91-11.231-21.262-28.389-15.344-15.171-17.219-16.705-21.226-17.362-4.068-.667-8.982-4.38-9.073-6.856-.018-.473 2.259-3.366 5.059-6.43 9.945-10.881 17.74-23.97 22.16-37.21 4.123-12.35 5.117-18.775 5.029-32.5-.094-14.509-2.425-25.78-8.201-39.656-8.501-20.42-27.309-40.376-47.786-50.7C147.37 2.108 125.489-1.565 105.25 1.066m-5.617 7.487c-19.828 3.94-37.744 13.669-51.77 28.112-16.467 16.958-24.432 35.766-25.567 60.374-.643 13.914.336 25.857 1.84 22.461.644-1.455.744-1.033.368 1.545-.616 4.216 2.258 14.958 3.475 12.989.592-.959.979-.743 1.476.825.371 1.168.351 2.647-.045 3.287-.422.682-.285.895.331.514.577-.357 1.316.047 1.643.898.34.885.171 1.285-.395.935-1.363-.842-1.181.533.465 3.507.761 1.375 1.945 2.5 2.632 2.5.686 0 1.456.625 1.71 1.389.317.95.027 1.137-.916.59-.815-.472-1.039-.427-.547.111.459.5 1.321.91 1.917.91s1.292.625 1.546 1.389c.3.899.03 1.121-.766.63-.956-.591-.977-.288-.095 1.36 1.374 2.567 2.225 2.789 1.419.371-.321-.963 1.342.5 3.696 3.25 19.368 22.625 41.479 35.273 67.264 38.477 12.29 1.527 30.996-1.032 43.169-5.907 8.495-3.401 9.96-3.72 7.076-1.538-2.786 2.107-1.148 1.809 3.731-.679 6.002-3.06 18.342-12.362 24.267-18.292 9.011-9.018 17.761-23.265 22.069-35.932 11.899-34.984 3.49-71.194-22.672-97.638-13.672-13.818-30.658-22.884-49.792-26.575-9.09-1.754-28.369-1.684-37.529.137m3 10c-34.678 6.89-60.867 31.615-69.081 65.218-1.423 5.818-1.682 10.014-1.299 21 .421 12.068.854 14.8 3.584 22.581 8.281 23.606 23.145 40.334 46.442 52.264 9.125 4.673 23.046 7.701 35.221 7.663 13.629-.043 21.526-1.471 32.413-5.861 29.972-12.086 50.782-39.143 55.108-71.649 2.994-22.499-6.256-47.466-24.762-66.831-4.532-4.743-7.907-8.991-7.5-9.441s.245-.535-.362-.189c-.606.345-1.956-.066-3-.914-1.043-.848-1.222-1.212-.397-.808.867.425 1.154.356.679-.163-.451-.494-1.351-.906-2-.917-.648-.01-5.454-2.17-10.679-4.799-15.904-8.003-36.475-10.71-54.367-7.154m5.867 11.454c-14.601 1.144-27.461 5.8-38.73 14.022-7.113 5.19-8.304 5.8-7.261 3.721.344-.687-1.599 1.177-4.318 4.144-11.941 13.03-19.932 33.1-17.324 43.512.564 2.252 1.116 7.616 1.227 11.921.207 8.038 1.675 11.359 4.535 10.262.754-.289 1.378.022 1.386.692.011.83.298.773.899-.176.71-1.121.979-1.023 1.369.5.267 1.042.537-8.523.601-21.257L51 74.197l3.25-2.666C64.583 63.055 72.142 57.639 77 55.229c4.828-2.396 6.661-2.729 15-2.725 10.995.004 17.428 2.247 23.033 8.03l3.296 3.401 3.963-3.58c6.741-6.09 11.839-7.853 22.708-7.854 8.197-.001 10.254.36 15 2.628 3.025 1.446 7.975 4.688 11 7.204s7.028 5.821 8.895 7.346c5.515 4.502 5.695 5.843 5.124 38.018l-.519 29.197-3.446 3.553c-3.23 3.33-3.841 3.553-9.75 3.553-4.937 0-6.304.325-6.304 1.5 0 1.572-1.119 1.733-11 1.577-3.025-.047-8.079.289-11.231.749-5.136.747-5.609.67-4.548-.746.651-.869-.594.081-2.768 2.111s-5.303 4.39-6.953 5.244-2.422 1.555-1.715 1.559c.707.003 2.395-.721 3.75-1.609 1.356-.888 2.465-1.168 2.465-.621s1.427 1.585 3.172 2.307c1.745.723 2.645 1.49 2 1.705s-1.172.861-1.172 1.435c0 .652 1.447.813 3.846.43 2.115-.339 4.178-.284 4.584.122s3.737.861 7.404 1.013c10.496.433 15.166.71 15.166.897 0 .096-3.375 2.312-7.5 4.925-7.228 4.579-9.915 6.764-5.25 4.269 17.391-9.299 28.893-22.266 36.536-41.19 2.084-5.159 2.391-7.516 2.35-18.03-.055-13.878-.762-21.254-2.651-27.647-2.548-8.623-6.385-17.096-9.926-21.92-4.242-5.779-14.583-15.624-21.171-20.157-9.815-6.753-29.417-13.157-39.096-12.772-2.086.083-7.842.468-12.792.856M59.872 50.75c-1.243 1.586-1.208 1.621.378.378.962-.755 1.75-1.543 1.75-1.75 0-.823-.821-.294-2.128 1.372m23.122 9.184c-4.784 1.455-8.714 3.983-11.986 7.709l-3.288 3.746.64 10.461c.352 5.754.64 17.436.64 25.961 0 14.818.078 15.428 1.787 13.882 7.034-6.366 24.059-8.329 33.713-3.887 2.75 1.266 6.237 3.486 7.75 4.935l2.75 2.633V70.689l-2.633-3.452c-3.979-5.217-11.342-8.234-19.867-8.141-3.85.042-8.128.419-9.506.838m53.506-.058c-5.064 1.332-9.277 3.965-11.948 7.467L122 70.689v54.413l3.305-2.521c6.668-5.086 12.552-6.992 21.729-7.038 7.567-.038 9.238.306 14.752 3.038 3.421 1.694 6.443 2.857 6.717 2.583.273-.273.497-11.638.497-25.254V71.153l-2.63-3.125c-4.23-5.027-11.739-8.292-19.87-8.64-3.85-.165-8.35.055-10 .488M176 104c-.275 15.675-.387 28.687-.25 28.917 1.041 1.735 1.248-4.179 1.016-29.016L176.5 75.5zm-115.807 1.45c-.106 15.922.16 28.522.591 28 .431-.523.518-13.55.193-28.95l-.59-28zm-36.998 8.05c.02 1.65.244 2.204.498 1.231s.237-2.323-.037-3-.481.119-.461 1.769M79.5 124.86c-3.3 1.572-6.9 3.881-8 5.131l-2 2.273 6-.626c3.3-.344 8.804-.915 12.231-1.268 11.252-1.158 18.095 2.464 23.438 12.404 3.269 6.083 12.248 5.233 15.693-1.484 5.112-9.969 13.846-12.99 29.704-10.274 3.264.559 7.509 1.274 9.434 1.589l3.5.572-2.33-2.488c-1.281-1.368-5.106-3.77-8.5-5.338-7.932-3.665-17.962-3.939-24.17-.66-4.641 2.452-11.061 8.596-13.121 12.559-.787 1.512-1.695 2.75-2.017 2.75-.323 0-3.48-3.125-7.016-6.944-10.378-11.209-20.972-13.853-32.846-8.196m-54.421-.277c.048 1.165.285 1.402.604.605.289-.722.253-1.585-.079-1.917s-.568.258-.525 1.312m1.007 2.917c.104 1.894 1.77 5.084 1.828 3.5.031-.825-.381-2.175-.914-3s-.945-1.05-.914-.5m73.324 20.815c.462 1.454.18 1.69-1.416 1.183-1.097-.348-1.994-.201-1.994.328 0 1.417 2.833 2.254 3.573 1.055.396-.64 1.451-.301 2.782.895 1.18 1.06 2.82 2.257 3.645 2.662s.52-.091-.677-1.101-3.148-2.962-4.334-4.337c-1.558-1.807-1.996-1.996-1.579-.685M40.5 158c.995 1.1 2.035 2 2.31 2s-.315-.9-1.31-2-2.035-2-2.31-2 .315.9 1.31 2m138.245 28.265-3.755 3.235 2.379 2.062 2.38 2.063 4.021-3.752c3.762-3.509 3.911-3.852 2.297-5.312-2.373-2.148-3.027-1.996-7.322 1.704m-27.245 4.752c-2.231 1.096-2.894 1.693-1.5 1.35 2.921-.72 7.964-3.281 6.5-3.301-.55-.007-2.8.871-5 1.951m39.283 5.672c-2.905 2.578-6.103 5.728-7.104 6.998l-1.822 2.31 17.322 17.436c14.125 14.219 18.055 17.63 21.299 18.484 4.982 1.312 9.897-.25 11.439-3.635 1.675-3.675 1.283-10.97-.81-15.072-2.883-5.65-29.585-31.21-32.604-31.21-1.484 0-4.502 1.833-7.72 4.689m-49.97-2.006c.721.289 1.584.253 1.916-.079s-.258-.568-1.312-.525c-1.165.048-1.402.285-.604.604"/><path fill="#1976D2" fill-opacity=".732" fill-rule="evenodd" d="M110 .666c-6.991 1.101-18.214 3.691-24 5.538-29.315 9.359-53.115 31.726-63.676 59.841-5.028 13.386-6.324 21.13-6.323 37.77 0 12.704.351 15.967 2.598 24.185 11.617 42.494 50.344 73.943 94.401 76.659 14.185.875 30.998-2.178 46.61-8.462l5.11-2.058 4.167 4.245 4.166 4.245-1.527 3.654c-.839 2.009-1.526 5.351-1.526 7.426 0 3.554.973 4.736 16.75 20.356 9.676 9.579 18.386 17.335 20.625 18.365 6.226 2.864 14.479 3.199 19.178.779 8.332-4.293 13.734-12.513 13.66-20.787-.084-9.296-3.868-14.435-25.58-34.743-11.267-10.538-13.939-12.555-17.412-13.142-3.029-.511-4.773-1.572-6.665-4.053l-2.563-3.359 4.943-5.155c10.881-11.35 19.607-26.685 24.733-43.47 2.514-8.23 2.752-10.411 2.786-25.5.033-14.896-.222-17.424-2.628-26-5.593-19.935-14.477-34.745-29.18-48.648-10.468-9.897-20.204-15.961-33.863-21.092C140.337 1.834 120.826-1.039 110 .666m-4.5 6.462c-26.263 3.283-53.357 19.805-68.244 41.614C31.623 56.994 29.691 61.067 26.219 72c-7.882 24.824-6.415 48.953 4.299 70.719 11.756 23.881 33.934 42.917 59.516 51.082 20.318 6.485 45.596 5.407 65.274-2.786 20.479-8.525 40.039-26.745 49.936-46.515 7.288-14.557 10.217-29.215 9.516-47.61-.594-15.587-3.105-25.014-10.286-38.633-15.109-28.653-41.299-46.825-73.796-51.203-8.9-1.199-15.14-1.181-25.178.074m2.972 10.914C93.421 20.01 76.76 26.71 65.28 35.411c-11.196 8.485-21.376 21.636-26.916 34.77-11.144 26.423-7.375 56.667 10.133 81.319 10.409 14.656 28.3 27.019 47.237 32.641 8.624 2.56 26.224 3.499 36.266 1.935 32.792-5.107 60.597-30.217 70.05-63.261 3.033-10.605 3.681-26.433 1.485-36.303-9.96-44.766-50.891-74.247-95.063-68.47M108 25.105c-9.382 1.057-18.207 3.922-28.5 9.252-10.919 5.655-26.397 20.914-31.84 31.389-6.39 12.298-7.808 17.509-8.389 30.82-.912 20.88 4.118 36.869 16.965 53.932 9.222 12.247 27.082 23.691 42.888 27.48 10.195 2.444 27.131 2.674 37.376.507 8.387-1.774 21.509-7.889 30.128-14.039 12.481-8.906 23.544-25.602 28.602-43.165 3.113-10.807 3.062-27.427-.118-38.781-5.108-18.233-16.392-33.877-31.935-44.274-11.088-7.416-19.921-10.935-32.042-12.762-10.521-1.586-12.041-1.609-23.135-.359M86.445 53.031c-7.22 1.004-12.952 3.843-20.822 10.315C61.84 66.456 58.461 69 58.113 69c-.349 0-1.866 1.143-3.373 2.54L52 74.081v29.992c0 32.352.358 34.966 5.232 38.159 2.045 1.34 5.918 1.699 21.096 1.955l18.592.313 4.29 4.203C106.487 153.872 111.383 156 118 156s11.513-2.128 16.79-7.297l4.29-4.203 18.758-.5c28.295-.754 27.162.874 27.162-39.033 0-26.888-.099-28.392-2.089-31.612-1.15-1.859-2.837-3.78-3.75-4.269-.914-.489-4.586-3.244-8.161-6.122-9.988-8.041-14.804-9.943-25.212-9.954-10.574-.012-17.827 2.371-22.786 7.488C121.135 62.424 119.109 64 118.5 64s-2.605-1.545-4.436-3.434c-6.018-6.209-16.53-9.077-27.619-7.535m-2.038 6.321c-6.242 1.582-11.708 4.858-14.389 8.623C68.118 70.644 68 72.334 68 96.988c0 14.398.338 26.026.75 25.84.412-.187 3.225-1.648 6.25-3.247 4.263-2.255 7.221-3.012 13.153-3.368 10.443-.626 16.707 1.031 22.213 5.878 2.442 2.15 4.709 3.909 5.037 3.909s.597-11.947.597-26.55c0-28.746-.101-29.366-5.661-34.647-5.833-5.541-16.627-7.81-25.932-5.451M138 59.37c-6.871 1.529-8.949 2.669-12.747 6.995l-3.021 3.441-.436 27.847c-.239 15.316-.307 28.019-.149 28.23.157.211 1.956-1.083 3.997-2.875 9.507-8.348 25.018-9.76 37.533-3.419 2.616 1.326 4.996 2.411 5.29 2.411s.533-11.609.533-25.797V70.406l-3.75-3.654c-7.008-6.827-17.262-9.605-27.25-7.382m37.235 32.745c.146 9.562.073 22.759-.162 29.326-.274 7.67-.058 12.064.603 12.284 1.56.52 2.309-10.745 2.317-34.853.006-18.105-.24-21.832-1.508-22.884-1.345-1.117-1.485.692-1.25 16.127M59.628 76.705c-.387.388-.649 13.438-.581 29 .103 23.668.355 28.295 1.538 28.295 1.187 0 1.415-4.666 1.415-29 0-15.95-.375-29-.833-29-.459 0-1.151.317-1.539.705M79.5 124.45c-4.794 2.33-10.5 6.736-10.5 8.107 0 .704 3.017.403 15.554-1.555 7.038-1.1 8.774-1.049 13.767.403 4.673 1.359 6.276 2.429 8.796 5.878 1.695 2.319 3.471 5.217 3.947 6.439.998 2.564 4.014 3.552 9.458 3.098 3.408-.285 4.087-.817 6.158-4.82 3.104-6 7.522-9.609 13.527-11.05 4.07-.976 6.963-.882 16.318.532 6.254.946 11.898 1.544 12.543 1.329 1.783-.595-5.703-5.882-11.988-8.468-13.087-5.384-27.689-.694-34.873 11.2-1.481 2.451-2.941 4.457-3.244 4.457s-2.238-2.211-4.298-4.912c-6.985-9.159-14.217-13.094-24.037-13.078-4.437.007-7.508.68-11.128 2.44m97.721 62.416-6.279 4.538 3.021 3.021 3.022 3.022 5.507-5.44c3.03-2.991 5.494-5.679 5.477-5.973-.018-.294-1.03-1.247-2.25-2.12-2.113-1.509-2.52-1.368-8.498 2.952m16.179 6.995c-5.459 4.006-16.031 15.401-16.938 18.258-.673 2.12.989 4.065 15.141 17.723 8.743 8.438 17.386 15.993 19.205 16.788 4.95 2.163 11.86 2.005 15.031-.343 7.048-5.22 9.693-14.105 6.379-21.424-2.213-4.887-30.787-33.863-33.393-33.863-.839 0-3.28 1.288-5.425 2.861"/></svg>