<svg xmlns="http://www.w3.org/2000/svg" width="256" height="256"><path fill="#1976D2" fill-opacity=".016" fill-rule="evenodd" d="M0 128.004v128.004l128.25-.254 128.25-.254.254-127.75L257.008 0H0zm.485.496c0 70.4.119 99.053.265 63.672s.146-92.98 0-128S.485 58.1.485 128.5"/><path fill="#1976D2" fill-opacity=".311" fill-rule="evenodd" d="M100.299 1.102C71.62 5.887 50.088 33.807 51.141 64.844l.283 8.344-8.621 3.333C29.011 81.854 28 82.529 28 86.407c0 3.114-.306 3.433-4.258 4.428-8.824 2.222-16.543 9.162-21.056 18.932C.523 114.45.5 115.075.5 168.5v54l2.885 6.247c3.303 7.152 9.462 13.367 16.439 16.592 4.529 2.093 6.031 2.17 47.871 2.451 42.396.284 43.207.327 43.84 2.319 1.291 4.07 6.214 5.884 15.965 5.884 9.745 0 14.674-1.814 15.963-5.875.628-1.979 1.509-2.026 43.839-2.319 41.833-.29 43.346-.367 47.874-2.46 6.977-3.225 13.136-9.44 16.439-16.592l2.885-6.247v-54c0-53.425-.023-54.05-2.186-58.733-4.513-9.77-11.611-16.19-20.718-18.74-4.165-1.166-4.511-1.519-4.792-4.886-.297-3.544-.511-3.718-9.134-7.404-14.235-6.085-21.748-7.861-35.782-8.457l-12.611-.535-.561-9.623c-.872-14.965-4.635-25.495-13.17-36.849-8.341-11.095-21.395-19.192-35.201-21.834-8.254-1.579-12.205-1.646-20.046-.337m70.001 73.57c-1.727.356-2.679 1.973-4.43 7.522l-2.231 7.068 2.93 2.116c17.542 12.668 36.696 35.423 41.639 49.464 6.547 18.603-6.226 32.083-24.001 25.329-11.724-4.455-29.363-20.133-42.581-37.849-6.438-8.629-6.991-9.113-9.237-8.089L130 121.321v97.568l5.25-2.389c2.888-1.314 9.3-3.623 14.25-5.131 8.343-2.541 10.278-2.741 26.5-2.741s18.157.2 26.5 2.741c4.95 1.508 11.363 3.817 14.25 5.131l5.25 2.389V85.875l-6.739-3.056c-12.29-5.573-36.332-9.929-44.961-8.147M51.67 79c-.303.825-1.254 4.875-2.113 9-6.198 29.762-7.804 64.758-4.452 97 1.065 10.233 3.583 26.021 4.259 26.697.228.228 3.277-.387 6.775-1.368 5.006-1.403 9.982-1.772 23.361-1.734 15.578.045 17.753.278 26 2.783 4.95 1.503 11.362 3.808 14.25 5.122l5.25 2.389v-96.122l-2.25.62c-6.31 1.74-16.736 1.817-24.103.178-20.86-4.641-37.209-19.606-44.602-40.827-1.11-3.187-2.04-4.651-2.375-3.738m1.561 71.25c-.977 4.683-.665 5.974.9 3.721.773-1.113 1.145-1.167 1.528-.221.75 1.847 2.331 1.518 2.404-.5.046-1.27.327-1.093 1.022.645 1.399 3.499 2.221 1.875 1.427-2.822-.813-4.813-1.999-5.915-3.025-2.812l-.741 2.239-.443-2.25c-.698-3.551-2.105-2.635-3.072 2m8.839 1.5c-.074 3.425.742 4.038 2.73 2.05.933-.933 1.2-.92 1.2.059 0 .692.399 1.013.886.711.488-.301 1.193.46 1.568 1.691.516 1.698.821 1.877 1.26.739.319-.825 1.188-1.86 1.933-2.3.744-.44 1.353-1.479 1.353-2.309 0-.843.485-1.209 1.101-.829.626.387.852 1.922.525 3.559-.846 4.229.906 3.506 2.765-1.141 1.89-4.724 1.922-4.98.609-4.98-.55 0-1.014.787-1.03 1.75-.029 1.667-.079 1.667-1.05 0-.659-1.132-2.239-1.75-4.47-1.75-2.592 0-3.467.435-3.52 1.75-.064 1.589-.137 1.58-.797-.097-.68-1.727-.818-1.737-2.133-.153s-1.453 1.574-2.133-.153c-.541-1.376-.744-1.017-.797 1.403m27.537-1.168c-1.192 3.107-.594 3.918 2.893 3.918s4.085-.811 2.893-3.918c-.803-2.094-2.134-2.011-2.704.168-.435 1.667-.463 1.667-.573 0-.145-2.181-1.697-2.285-2.509-.168m7.463 1.168c-.074 3.425.742 4.038 2.73 2.05.933-.933 1.2-.92 1.2.059 0 .692.403 1.01.895.706.493-.305 1.162.142 1.489.992.497 1.297 1.003 1.165 3.144-.82 1.664-1.544 2.327-2.952 1.905-4.052-.745-1.94-5.425-2.314-5.448-.435-.012.963-.205.952-.839-.047-.652-1.028-1.106-.956-2.187.347-1.258 1.515-1.422 1.499-2.092-.203-.541-1.376-.744-1.017-.797 1.403M82.5 151c-.34.55.335 1 1.5 1s1.84-.45 1.5-1-1.015-1-1.5-1-1.16.45-1.5 1M70 152c0 .55.45 1 1 1s1-.45 1-1-.45-1-1-1-1 .45-1 1m35 0c0 .55.45 1 1 1s1-.45 1-1-.45-1-1-1-1 .45-1 1m42.3 35c0 3.025.187 4.262.416 2.75s.229-3.988 0-5.5-.416-.275-.416 2.75m13.498-3.465c-1.034 1.034.26 3.465 1.844 3.465 1.118 0 1.196.434.358 2-.75 1.402-.754 2-.01 2 .583 0 1.498-1.154 2.035-2.565 1.29-3.393 1.278-3.435-.942-3.435-1.054 0-2.076-.478-2.27-1.062-.195-.585-.652-.766-1.015-.403M149 186.642c0 .793.9 2.408 2 3.588l2 2.147v-2.688c0-1.479.45-2.689 1-2.689s1 .873 1 1.941.482 2.239 1.071 2.603c.701.433.96-.497.75-2.691-.299-3.119-.583-3.363-4.071-3.503-2.669-.107-3.75.265-3.75 1.292m18.289 2.108c-.02 2.063.172 2.929.426 1.925.422-1.674.607-1.694 2.211-.242 1.636 1.48 1.755 1.339 1.83-2.175.062-2.851-.115-3.275-.73-1.758-.745 1.836-.87 1.856-1.526.25-1.178-2.888-2.174-1.987-2.211 2M173 186c0 .55.675 1 1.5 1 .833 0 1.5.889 1.5 2 0 1.1.45 2 1 2 1.124 0 1.306-2.04.393-4.418-.659-1.719-4.393-2.213-4.393-.582m5.61 1.75c.912 3.87 1.862 4.603 4.283 3.307 1.37-.733 2.093-2.077 2.067-3.842l-.04-2.715-1.492 2.75c-.821 1.512-1.718 2.75-1.995 2.75s-.001-.939.613-2.086c1.286-2.404.313-4.095-1.085-1.885-.63.996-.935 1.068-.946.221-.008-.687-.474-1.25-1.034-1.25-.602 0-.754 1.125-.371 2.75m7.548-.75c0 1.375.227 1.938.504 1.25.278-.687.278-1.812 0-2.5-.277-.687-.504-.125-.504 1.25m4.842 1.5c0 3.044.318 3.5 2.441 3.5 3.001 0 3.937-1.36 3.134-4.557-.444-1.769-1.297-2.443-3.094-2.443-2.169 0-2.481.441-2.481 3.5m6.455.5c0 2.2.347 4 .772 4 1.549 0 4.773-4.053 4.773-6 0-2.77-1.984-2.531-2.068.25l-.067 2.25-1.085-2.25c-1.596-3.308-2.325-2.758-2.325 1.75m-4.455-.5c0 .825.45 1.5 1 1.5s1-.675 1-1.5-.45-1.5-1-1.5-1 .675-1 1.5"/><path fill="#1976D2" fill-opacity=".196" fill-rule="evenodd" d="M94.5 2.867c-9.445 2.714-16.384 6.984-24.727 15.218-6.115 6.036-8.568 9.379-11.76 16.031-5 10.42-7.489 22.517-6.665 32.387l.585 7.002-7.717 2.758C32.149 80.575 28.592 82.928 28 86.99c-.414 2.846-1.013 3.54-3.5 4.058C16.621 92.687 8.293 99.526 3.856 108L1.5 112.5l-.283 54.392c-.318 60.986-.428 59.866 6.807 69.019 2.605 3.296 5.859 5.874 10.072 7.979l6.223 3.11h85.451l1.79 2.75c3.134 4.815 4.275 5.186 15.94 5.186s12.806-.371 15.94-5.186l1.79-2.75h85.451l6.223-3.11c4.213-2.105 7.467-4.683 10.072-7.979 7.235-9.153 7.125-8.033 6.807-69.019L253.5 112.5l-2.356-4.5c-4.428-8.457-12.758-15.307-20.61-16.948-2.385-.499-3.103-1.29-3.665-4.037-.84-4.109-2.068-5.079-11.266-8.906-11.797-4.907-22.085-7.197-35.103-7.812l-12-.567-.118-8.115c-.404-27.938-18.7-52.293-44.427-59.14C116.596.517 102.002.711 94.5 2.867m3 3.557C78.169 11.272 63.631 25.81 57.38 46.543c-2.874 9.533-2.426 24.858 1.021 34.919 8.152 23.798 27.913 38.563 51.559 38.526 14.913-.023 25.951-4.751 37.143-15.908 11.948-11.911 17.142-24.652 17.088-41.911-.086-27.043-16.64-49.152-41.651-55.626-7.039-1.822-18.04-1.874-25.04-.119m1.684 13.074C87.732 22.719 77.301 31.92 71.701 43.741 68.653 50.177 68.5 51.073 68.5 62.5s.153 12.323 3.201 18.759c8.014 16.917 23.864 26.743 41.043 25.444 32.066-2.425 50.144-40.827 32.306-68.625-9.982-15.556-29.093-23.298-45.866-18.58m4.687 3.52c-7.192 1.214-13.388 4.412-19.199 9.908-12.05 11.396-15.718 29.149-9.48 45.875 2.984 8.001 13.034 18.002 21.308 21.204 8.144 3.151 18.775 3.186 26.747.088 16.281-6.329 27.063-26.191 23.916-44.056-3.907-22.185-22.678-36.501-43.292-33.019m-.371 6.623c-6.294 2.61-10.5 6.146-10.5 8.828 0 3.719 1.071 5.607 3.76 6.63 1.976.751 3.374.426 6.792-1.577 5.002-2.931 9.972-3.233 13.475-.818 3.701 2.55 4.906 4.467 4.941 7.859.034 3.248-1.984 5.571-9.468 10.898-7.181 5.111-10.5 8.771-10.5 11.58 0 5.09 7.023 8.065 10.128 4.291.754-.918 4.522-4.018 8.372-6.889 11.568-8.627 14.5-12.678 14.5-20.04 0-14.22-18.258-26.254-31.5-20.762m64.109 45.463c-.243.768-1.348 4.205-2.457 7.638l-2.015 6.241 7.181 5.884c10.735 8.793 24.587 23.609 30.51 32.633 11.737 17.88 11.667 32.693-.181 38.429-5.106 2.472-7.614 2.567-14.419.546-13.14-3.902-36.074-25.239-50.906-47.36-.142-.211-1.622.181-3.29.872L129 121.243v48.995c0 46.202.1 48.964 1.75 48.454.963-.297 4.566-1.719 8.008-3.159 13.178-5.514 20.504-6.865 37.242-6.865 16.959 0 23.376 1.213 38.524 7.278 4.195 1.68 7.821 3.054 8.059 3.054s.315-30.032.174-66.737l-.257-66.738-7.644-3.276c-11.539-4.946-21.964-7.311-35.081-7.961-9.53-.471-11.808-.319-12.166.816M50 78.705c-.825.301-4.987 1.873-9.25 3.494L33 85.145v133.742l6.951-2.867c14.097-5.813 23.074-7.495 39.549-7.411 16.168.082 23.853 1.531 36.742 6.924 3.442 1.44 7.05 2.863 8.018 3.162 1.665.514 1.745-2.052 1.5-47.826-.228-42.426-.444-48.319-1.76-47.961-4.04 1.098-21.253 1.181-26.329.127-18.835-3.91-37.099-21.2-43.61-41.285-1.243-3.833-1.458-3.994-4.061-3.045m51.455 5.75C96.964 88.945 99.571 97 105.514 97c3.261 0 6.486-4.057 6.486-8.159 0-6.521-5.94-8.992-10.545-4.386m-47.83 65.67c-.846 4.229-.614 5.956.386 2.875l.811-2.5.703 2.239c.75 2.39 2.475 2.141 2.475-.357 0-.825-.45-1.222-1-.882-.567.351-1-.49-1-1.941 0-3.584-1.622-3.197-2.375.566m4.41-1.375c.02.963.726 2.875 1.57 4.25.843 1.375 1.277 1.676.964.668-.313-1.007-.569-2.92-.569-4.25S59.55 147 59 147s-.984.787-.965 1.75M69 153.127v3.951l2.091-1.948c2.407-2.242 2.222-5.322-.341-5.697-1.415-.207-1.75.501-1.75 3.694m35-.503c0 3.17.165 3.358 2.061 2.344 2.478-1.327 2.263-5.168-.311-5.539-1.377-.198-1.75.483-1.75 3.195m-41.93-.874c-.074 2.37 1.338 3.017 2.496 1.143.477-.771.944-.696 1.544.25.628.991.864.75.875-.893.018-2.673-1.476-2.974-2.485-.5-.656 1.606-.782 1.586-1.537-.25-.782-1.901-.826-1.889-.893.25m12.376-.25c.452 1.1.788 2.9.747 4-.064 1.737.112 1.671 1.331-.5.773-1.375 1.386-3.175 1.362-4-.032-1.076-.19-1.135-.562-.208-.424 1.055-.809 1.055-2.108 0-1.382-1.122-1.483-1.029-.77.708M90 151c0 .55.45 1 1 1s1-.45 1-1-.45-1-1-1-1 .45-1 1m3.5 0c-.34.55-.141 1 .441 1S95 151.55 95 151s-.198-1-.441-1-.719.45-1.059 1m3.57.75c-.074 2.37 1.338 3.017 2.496 1.143.477-.771.944-.696 1.544.25.628.991.864.75.875-.893.018-2.673-1.476-2.974-2.485-.5-.656 1.606-.782 1.586-1.537-.25-.782-1.901-.826-1.889-.893.25m-27.07.809c0 .857.45 1.281 1 .941s1-1.041 1-1.559-.45-.941-1-.941-1 .702-1 1.559m35 0c0 .857.45 1.281 1 .941s1-1.041 1-1.559-.45-.941-1-.941-1 .702-1 1.559m42.252 33.941c.011 2.2.216 2.982.455 1.738s.23-3.044-.02-4-.446.062-.435 2.262m13.827-2.25c-.044.974.634 1.75 1.529 1.75 1.243 0 1.464.625.97 2.75-.474 2.04-.377 2.363.376 1.25 1.479-2.184 1.27-5-.371-5-.779 0-1.643-.562-1.921-1.25-.301-.747-.536-.545-.583.5m-8.929 4c.143 3.11.168 3.129.572.441.496-3.301 2.432-3.083 3.401.383.584 2.091.691 2.143.777.376.112-2.297-1.63-4.45-3.6-4.45-.831 0-1.246 1.173-1.15 3.25m22.407-1.832c2.095 1.532 3.044 1.364 1.984-.351-.362-.587-1.393-1.067-2.291-1.067-1.365 0-1.315.232.307 1.418m17.144-.786c-.385.386-.701 1.751-.701 3.035 0 1.838.544 2.333 2.566 2.333 2.208 0 2.523-.383 2.25-2.741-.302-2.621-2.633-4.109-4.115-2.627m-24.183 2.311c-.385 1.214-.435 2.474-.109 2.799.325.325.605-.271.623-1.325.031-1.879.061-1.878 1.5.024.807 1.068 1.468 1.442 1.468.832s.267-1.934.594-2.941c.497-1.53.414-1.585-.5-.332-.92 1.262-1.235 1.28-1.985.118-.698-1.084-1.041-.906-1.591.825m11.497.307c-.011 2.061.472 2.75 1.926 2.75 1.068 0 2.193-.408 2.501-.907.309-.498-.452-.645-1.691-.326-2.017.52-2.106.404-.858-1.118.765-.933 1.103-1.986.75-2.34-.354-.353-.65-.005-.658.774-.013 1.167-.187 1.152-.985-.083-.755-1.169-.973-.893-.985 1.25m13.624-1.556c-1.195 1.195-.645 3.306.861 3.306.825 0 1.5-.648 1.5-1.441 0-1.671-1.427-2.798-2.361-1.865m5.686 2.054c.096 1.786.423 3.249.725 3.25.948.003 2.951-2.349 2.935-3.448-.009-.578-.436-.386-.949.426-.762 1.205-1.113 1.021-1.91-1-.928-2.353-.968-2.314-.801.772"/><path fill="#1976D2" fill-opacity=".712" fill-rule="evenodd" d="M96.645 2.584c-13.198 3.195-26.895 13.021-34.57 24.8-7.018 10.773-9.41 18.964-9.875 33.821l-.399 12.705-3.65 1.175c-2.008.646-7.114 2.743-11.347 4.659-7.298 3.305-7.713 3.667-8 6.994-.291 3.364-.561 3.588-6.511 5.409-7.407 2.266-14.512 8.605-18.329 16.353l-2.464 5v110l2.382 5.27c3.201 7.082 11.558 14.689 18.356 16.708C26.469 246.735 34.646 247 69.114 247c40.689 0 41.767.05 42.378 1.974.344 1.086 1.785 2.886 3.202 4C116.9 254.709 118.74 255 127.5 255s10.6-.291 12.806-2.026c1.417-1.114 2.858-2.914 3.202-4 .611-1.924 1.689-1.974 42.378-1.974 34.468 0 42.645-.265 46.876-1.522 6.798-2.019 15.155-9.626 18.356-16.708l2.382-5.27v-110l-2.464-5c-3.817-7.748-10.922-14.087-18.329-16.353-5.95-1.821-6.22-2.045-6.511-5.409-.289-3.342-.69-3.685-8.445-7.231-11.382-5.202-25.05-8.469-38.501-9.201L168 69.694v-7.687c0-38.971-35.098-68.2-71.355-59.423m5.742 2.389c-17.417 2.64-32.803 13.974-40.96 30.172-17.359 34.471 1.691 76.672 38.073 84.344 8.769 1.849 12.224 1.85 21 .004 10.414-2.191 18.892-6.891 27.04-14.993 8.141-8.095 12.637-15.963 15.485-27.096 7.558-29.552-8.372-60.574-35.923-69.956-7.648-2.604-17.412-3.582-24.715-2.475m.846 14.128c-22.16 3.735-38.278 27.306-34.454 50.384 5.807 35.046 45.647 48.994 70.1 24.541 8.652-8.653 14.127-23.994 12.677-35.526-3.262-25.951-24.651-43.39-48.323-39.399m-3.947 4.291c-24.097 7.865-34.988 36.822-22.523 59.882 3.412 6.312 10.949 13.232 18.019 16.546 4.947 2.319 6.998 2.679 15.218 2.676 8.469-.004 10.149-.322 15.478-2.931 7.957-3.895 14.891-11.011 18.829-19.324 2.991-6.316 3.193-7.438 3.193-17.793 0-10.767-.097-11.248-3.772-18.685-4.281-8.661-9.842-14.204-18.499-18.439-6.644-3.251-19.067-4.176-25.943-1.932m8.214 5.674C99.835 30.807 93 35.694 93 39.434 93 42.033 95.865 45 98.375 45c.944 0 3.83-1.125 6.413-2.5s5.646-2.5 6.806-2.5c2.815 0 8.507 3.925 10.284 7.092 2.587 4.609.868 7.341-9.378 14.908-11.041 8.154-12.519 10.867-8.027 14.731 1.527 1.313 3.283 2.193 3.902 1.955 3.553-1.363 21.763-16.173 23.659-19.241 2.708-4.382 3.038-12.491.691-16.968-1.766-3.37-8.103-9.666-11.461-11.386-3.423-1.755-10.421-2.784-13.764-2.025m57.668 52.524-2.305 7.835 2.811 2.037c11.552 8.372 26.609 23.816 34.048 34.923 11.542 17.234 12.436 31.627 2.38 38.345-13.018 8.697-36.835-6.11-60.286-37.48l-6.915-9.25-2.95 1.526-2.951 1.525v98.86l6.866-2.922c26.228-11.161 55.68-11.009 81.523.419L223 219.89V85.187l-7.267-3.026c-13.281-5.528-21.273-7.315-35.247-7.88l-13.013-.526zm-121.612-.973c-4.916 1.901-9.528 3.945-10.247 4.542C32.254 86.034 32 99.234 32 153.067v66.823l5.611-2.482c25.843-11.428 55.295-11.58 81.523-.419l6.866 2.922v-98.144l-2.25.675c-1.237.371-6.075.92-10.75 1.219-25.134 1.609-48.868-14.56-57.459-39.145-1.273-3.642-2.479-6.787-2.68-6.988s-4.389 1.188-9.305 3.089m59.191 3.367C97.166 88.375 98.891 96 105.466 96c5.952 0 8.853-7.681 4.534-12-2.514-2.514-4.072-2.518-7.253-.016m55.707 13.265c-3.774 5.703-12.008 14.312-16.117 16.852-1.836 1.134-3.337 2.407-3.337 2.828 0 1.836 14.117 19.24 21.941 27.05 9.974 9.957 18.976 16.262 26.685 18.692 4.915 1.55 5.911 1.579 9.589.279 14.514-5.128 10.538-23.33-10.251-46.922C181.188 109.473 163.04 93 161.595 93c-.181 0-1.595 1.912-3.141 4.249m68.224-2.593c-.373.372-.678 29.552-.678 64.844s-.256 64.423-.569 64.736c-.314.313-3.973-1.003-8.132-2.924-21.085-9.742-48.494-11.766-68.882-5.087l-3.917 1.284V243.5H187c42.478 0 42.502-.001 47.228-2.329 6.333-3.118 13.119-10.813 14.877-16.868 1.114-3.835 1.395-15.287 1.395-56.803 0-50.762-.05-52.108-2.106-56.551-1.158-2.503-3.54-6.185-5.294-8.182-4.025-4.585-14.684-9.849-16.422-8.111M62.5 213.521c-9.263 1.704-12.505 2.926-12.488 4.708.007.699 1.524 6.671 3.372 13.271l3.359 12H110.5l.279-12.699c.323-14.671 1.057-13.563-10.779-16.288-10.302-2.372-27.524-2.827-37.5-.992m51.5 19.457c0 13.651.08 14.193 2.455 16.567 2.225 2.226 3.257 2.455 11.045 2.455s8.82-.229 11.045-2.455c2.375-2.374 2.455-2.916 2.455-16.567v-14.113l-2.25.697c-1.238.383-4.277 1.715-6.755 2.96l-4.504 2.263-4.496-2.264c-2.472-1.245-5.508-2.577-6.745-2.96l-2.25-.696z"/></svg>